<svg width="190" height="38" viewBox="0 0 190 38" fill="none" xmlns="http://www.w3.org/2000/svg">
<path d="M29.29 31.1104V35.4784C29.29 35.9152 28.9363 36.2726 28.4976 36.2726H10.3831V32.8094C15.1374 32.4321 18.8956 28.4441 18.8956 23.5826V11.1846C18.8956 9.79481 17.7665 8.66309 16.3798 8.66309H9.44073C4.23644 8.66025 0 12.9063 0 18.1565C0 23.3642 4.22512 27.5989 9.42092 27.5989C12.6216 27.5989 15.4544 25.9963 17.1722 23.5542V23.5826C17.1722 27.5592 14.0819 30.8182 10.1822 31.0933H8.65966V38H28.4976C29.8843 38 31.0106 36.8683 31.0106 35.4813V31.1132H29.29V31.1104ZM9.42092 25.8715C5.17599 25.8715 1.72344 22.4111 1.72344 18.1253C1.72344 13.8594 5.18731 10.3905 9.44073 10.3905H16.3769C16.8156 10.3905 17.1722 10.7478 17.1722 11.1875V18.1083C17.1722 22.3856 13.6941 25.8715 9.42092 25.8715Z" fill="black"/>
<path d="M30.2013 10.4273C27.0007 10.4273 24.1679 12.0299 22.4501 14.4721V14.4437C22.4501 10.4671 25.5432 7.2052 29.4429 6.9329H30.9598V0.0149231H11.1218C9.73511 0.0149231 8.60596 1.14665 8.60596 2.53648V6.91588H10.3294V2.53648C10.3294 2.09968 10.686 1.74229 11.1218 1.74229H29.2363V5.21972C24.482 5.59696 20.7238 9.58494 20.7238 14.4465V26.2686C20.7238 27.9762 22.1105 29.366 23.8141 29.366H30.1759C35.3802 29.366 39.6166 25.1199 39.6166 19.8726C39.6223 14.6649 35.3971 10.4273 30.2013 10.4273ZM30.1815 27.6386H23.8198C23.0642 27.6386 22.4501 27.0231 22.4501 26.2658V19.9236C22.4501 15.6407 25.9281 12.1547 30.2013 12.1547C34.4463 12.1547 37.8988 15.6151 37.8988 19.9009C37.8988 24.1669 34.4378 27.6386 30.1815 27.6386Z" fill="black"/>
<path d="M80.0623 27.5762C74.858 27.5762 70.6216 23.333 70.6216 18.114C70.6216 12.8979 74.8552 8.65176 80.0623 8.65176C85.2666 8.65176 89.503 12.8979 89.503 18.114C89.503 23.3301 85.2666 27.5762 80.0623 27.5762ZM80.0623 10.365C75.8004 10.365 72.3337 13.8395 72.3337 18.114C72.3337 22.3856 75.8004 25.8602 80.0623 25.8602C84.3242 25.8602 87.7938 22.3856 87.7938 18.114C87.7909 13.8424 84.3242 10.365 80.0623 10.365Z" fill="black"/>
<path d="M165.357 8.62625C162.759 8.62625 160.495 10.0785 159.329 12.2171C158.163 10.0813 155.896 8.62625 153.301 8.62625C149.515 8.62625 146.433 11.7151 146.433 15.5102V27.5592H148.108V15.5102C148.108 12.6426 150.437 10.3082 153.299 10.3082C156.16 10.3082 158.489 12.6426 158.489 15.5102V27.5592H160.164V15.5102C160.164 12.6426 162.493 10.3082 165.354 10.3082C168.215 10.3082 170.544 12.6426 170.544 15.5102V27.5592H172.22V15.5102C172.222 11.7151 169.143 8.62625 165.357 8.62625Z" fill="black"/>
<path d="M141.763 22.1956C140.34 24.4874 137.889 25.8545 135.212 25.8545C131.245 25.8545 127.97 22.8394 127.54 18.9763H142.938H144.661V18.114C144.661 12.8922 140.422 8.64609 135.215 8.64609C130.005 8.64609 125.769 12.8922 125.769 18.114C125.769 23.3358 130.005 27.5819 135.215 27.5819C138.492 27.5819 141.489 25.9113 143.229 23.1117L141.763 22.1956ZM135.212 10.3706C139.18 10.3706 142.454 13.3857 142.884 17.2489H127.537C127.967 13.3857 131.245 10.3706 135.212 10.3706Z" fill="black"/>
<path d="M52.4474 29.417C54.2133 31.5812 56.8225 32.8236 59.6072 32.8236C64.7039 32.8236 68.8498 28.6682 68.8498 23.5599V11.7406C68.8498 10.0331 67.4631 8.64609 65.7623 8.64609H59.3836C54.185 8.64609 49.957 12.8837 49.957 18.0941V18.1537C49.957 23.3528 54.1765 27.5819 59.3638 27.5819H59.3921C62.5871 27.5819 65.4142 25.985 67.1292 23.5457V23.5599C67.1292 27.7152 63.7559 31.0962 59.61 31.0962C57.3432 31.0962 55.2207 30.0864 53.7831 28.3222L52.4474 29.417ZM67.1264 18.0998C67.1264 22.3743 63.6568 25.8545 59.3893 25.8545H59.361C55.1245 25.8545 51.6776 22.3998 51.6776 18.1537V18.0941C51.6776 13.8367 55.133 10.3706 59.3836 10.3706H65.7623C66.5151 10.3706 67.1292 10.9861 67.1292 11.7406V18.0998H67.1264Z" fill="black"/>
<path d="M107.688 24.1754C105.922 26.3395 103.313 27.5819 100.528 27.5819C95.4315 27.5819 91.2856 23.4266 91.2856 18.3182V6.87616H93.0091V12.0554H105.068V13.7828H93.0091V18.3182C93.0091 22.4735 96.3824 25.8545 100.528 25.8545C102.795 25.8545 104.918 24.8448 106.355 23.0805L107.688 24.1754Z" fill="black"/>
<path d="M124.88 24.1725C123.114 26.3395 120.505 27.579 117.72 27.579C112.623 27.579 108.478 23.4237 108.478 18.3154V6.87616H110.201V12.0554H122.259V13.7828H110.201V18.3182C110.201 22.4735 113.574 25.8545 117.723 25.8545C119.99 25.8545 122.112 24.8448 123.55 23.0805L124.88 24.1725Z" fill="black"/>
<path d="M182.722 16.7497C177.144 15.6293 177.291 13.2694 177.288 13.2694L177.299 13.1333C177.299 11.5279 178.876 10.3139 180.964 10.3139L181.024 10.3111C181.06 10.3082 184.575 10.1012 187.19 11.9647L187.677 12.3107L188.854 11.1308L188.916 11.0429L188.203 10.5351C185.178 8.37947 181.352 8.53547 180.936 8.55816C177.879 8.56951 175.573 10.5124 175.548 13.0907C175.5 13.7176 175.57 17.0986 182.376 18.4685C187.861 19.5691 187.617 22.1927 187.609 22.2863L187.598 22.4253C187.598 24.2832 185.413 25.9141 182.925 25.9141C182.886 25.9141 179.079 25.863 176.269 23.1401L175.669 22.5558L174.433 23.7953L175.055 24.3995C178.386 27.6301 182.741 27.667 182.925 27.667C186.386 27.667 189.315 25.2929 189.349 22.4735C189.409 21.8354 189.462 18.1027 182.722 16.7497Z" fill="black"/>
</svg>
