<svg xmlns="http://www.w3.org/2000/svg" viewBox="0 0 154.34 154.34"><defs><style>.cls-1{fill:#333;}</style></defs><title>Ícone Perfil</title><g id="Layer_2" data-name="Layer 2"><g id="Layer_1-2" data-name="Layer 1"><path class="cls-1" d="M154.34,77.2A77.17,77.17,0,1,1,77.38,0C119.72.09,154.43,34.91,154.34,77.2ZM63.58,88.57A30.56,30.56,0,1,1,97.42,38.31a29,29,0,0,1,10.17,21.76c.25,12.84-5.77,22.15-16.8,28.47,19.71,5.56,33.1,17.8,40.34,36.79,22.48-23.65,27.41-67.45-1.19-97.84A72.31,72.31,0,0,0,23,29C-4.62,60.17,1.74,103,23.19,125.29,33.55,103.45,42.7,95.1,63.58,88.57Zm13.63,3.16c-1.26,0-2.53,0-3.79,0a19.25,19.25,0,0,0-2.13.23C49.61,95.1,35.06,107,27.38,127.5a2.53,2.53,0,0,0,.87,3.23c15.35,13.61,33.22,20,53.71,18.75,16.91-1,31.57-7.5,44.16-18.78a2.59,2.59,0,0,0,.8-3.26A52.25,52.25,0,0,0,77.21,91.73ZM103,61.06A25.87,25.87,0,1,0,77.16,87,25.82,25.82,0,0,0,103,61.06Z"/></g></g></svg>