<svg width="20" height="19" viewBox="0 0 20 19" fill="none" xmlns="http://www.w3.org/2000/svg">
<g clip-path="url(#clip0_305_2482)">
<path d="M18.7496 19.0003C18.8293 18.9698 18.9083 18.9381 18.9886 18.91C19.5926 18.6995 19.9987 18.1548 19.9993 17.5435C20.0006 15.8621 20.0006 14.1814 19.9993 12.5C19.9987 12.0303 19.6864 11.7033 19.2411 11.6978C18.7869 11.6923 18.4624 12.0254 18.4624 12.5043C18.4611 14.0941 18.4617 15.684 18.4617 17.2738C18.4617 17.3556 18.4617 17.4367 18.4617 17.5288C12.8163 17.5288 7.19526 17.5288 1.53889 17.5288C1.53889 17.441 1.53889 17.3531 1.53889 17.2659C1.53889 15.6687 1.53953 14.071 1.53825 12.4738C1.53761 12.1181 1.35191 11.8546 1.03449 11.7435C0.727993 11.6368 0.39451 11.7173 0.187609 11.9589C0.113716 12.0455 0.0623112 12.1492 0.000627518 12.245C0.000627518 14.1015 0.000627518 15.9573 0.000627518 17.8137C0.130423 18.167 0.292345 18.5049 0.637394 18.7148C0.82823 18.8307 1.04541 18.907 1.25103 19.0009C7.08345 19.0003 12.9165 19.0003 18.7496 19.0003Z" fill="#666666" fill-opacity="0.2"/>
<path d="M9.2309 2.56574C9.2309 2.64688 9.2309 2.72741 9.2309 2.80855C9.2309 6.6953 9.23026 10.5821 9.23283 14.4688C9.23283 14.5963 9.2399 14.7299 9.27845 14.8507C9.38383 15.1765 9.72503 15.3802 10.0778 15.3461C10.4357 15.3113 10.7319 15.0295 10.7653 14.6866C10.7737 14.6036 10.7692 14.5194 10.7692 14.4359C10.7692 10.5644 10.7692 6.69286 10.7692 2.82136C10.7692 2.73839 10.7692 2.65542 10.7692 2.51633C10.8623 2.60052 10.9234 2.65298 10.9812 2.70789C12.1654 3.83164 13.3464 4.95844 14.5377 6.07608C14.6682 6.19871 14.8429 6.30852 15.0171 6.35244C15.3608 6.43907 15.6879 6.27558 15.8466 5.99128C16.0047 5.70882 15.9462 5.36047 15.6866 5.11278C14.5782 4.05675 13.4659 3.00438 12.3569 1.94896C11.7626 1.38343 11.1708 0.816065 10.5803 0.24809C10.2436 -0.0758568 9.76743 -0.0807373 9.42945 0.241379C7.74405 1.84647 6.05864 3.45156 4.37066 5.05483C4.20038 5.2165 4.07316 5.39097 4.07059 5.62951C4.06738 5.93211 4.20231 6.16515 4.48503 6.29693C4.77354 6.43175 5.06076 6.40491 5.31906 6.21274C5.38782 6.16149 5.44757 6.09866 5.5099 6.03948C6.67163 4.93708 7.83272 3.83469 8.99316 2.73107C9.05485 2.6719 9.10561 2.60235 9.16151 2.53768C9.184 2.545 9.20713 2.55537 9.2309 2.56574Z" fill="#666666" fill-opacity="0.2"/>
</g>
<defs>
<clipPath id="clip0_305_2482">
<rect width="20" height="19" fill="white" transform="matrix(-1 0 0 1 20 0)"/>
</clipPath>
</defs>
</svg>
