<svg xmlns="http://www.w3.org/2000/svg" viewBox="0 0 195.63 172.06"><defs><style>.cls-1{fill:#333;}</style></defs><title>Ícone_3D</title><g id="Layer_2" data-name="Layer 2"><g id="Layer_1-2" data-name="Layer 1"><path class="cls-1" d="M182.16,172.06c4.54-.38,8.24-.76,11.63-1.2a2.06,2.06,0,0,0,1.62-.93,2.25,2.25,0,0,0,0-2c-1.42-3.35-3-6.78-4.71-10.49a1.94,1.94,0,0,0-2.69-1.09,2,2,0,0,0-1,2.77c.19.52.39,1,.63,1.65l1.16,3-2.67-1.45-1.2-.66L176,156.46c-8.47-4.9-17.23-10-25.9-14.86a5,5,0,0,1-2.82-5q.06-12.32.05-24.63c0-8,0-15.92,0-23.87a4.39,4.39,0,0,0-2.49-4.43c-8.69-5-17.49-10-26-14.94q-8.58-5-17.17-9.9a3.22,3.22,0,0,1-1.9-3.18q0-15.42,0-30.84V12.7a8.55,8.55,0,0,1,.1-1.06c0-.2.06-.42.09-.69l.21-1.87,1.13,1.5c.25.33.46.63.66.9a15.39,15.39,0,0,0,1,1.32,1.92,1.92,0,0,0,2.8.45,2,2,0,0,0,.86-1.24,2.14,2.14,0,0,0-.4-1.62c-2.57-3.69-4.76-6.7-6.87-9.47A2.11,2.11,0,0,0,97.75,0h0a2,2,0,0,0-1.58.86c-2.29,3-4.62,6.28-6.93,9.66a1.8,1.8,0,0,0,.51,2.71,1.86,1.86,0,0,0,2.78-.4c.35-.38.68-.81,1.11-1.36.23-.3.48-.63.79-1l1.33-1.67V22.18c0,10.86,0,22.08,0,33.12A3.72,3.72,0,0,1,93.68,59Q85.79,63.49,77.93,68C69.28,73,60.34,78.21,51.49,83.2a5.59,5.59,0,0,0-3.32,5.7c.07,9.85.07,19.86.06,29.54q0,9.59,0,19.16a3.55,3.55,0,0,1-2,3.54c-8.78,5-17.68,10.16-26.29,15.13l-9.53,5.5c-.31.18-.63.34-1,.54L6.9,163.55,8,160.91l.46-1.12c1-2.3.13-3-.73-3.45a1.74,1.74,0,0,0-1.38-.11,3.42,3.42,0,0,0-1.66,1.88l-3.26,7.11-1.39,3v1.38l.45.38a3.05,3.05,0,0,0,1.19.79c3.77.5,7.76.91,12.2,1.25,1.35.1,1.8-.93,1.94-1.8A2,2,0,0,0,14,168.08c-.51-.1-1-.17-1.67-.25l-1.12-.14-2.07-.29,2.72-1.68c.52-.32.94-.58,1.37-.83l8.81-5.08c8.58-4.95,17.45-10.06,26.14-15.13a3.7,3.7,0,0,1,4.23,0q9.26,5.4,18.54,10.76c7.83,4.53,15.93,9.21,23.86,13.86a5,5,0,0,0,5.77,0c8.65-5.07,17.48-10.16,26-15.09q8.3-4.78,16.59-9.59a4.17,4.17,0,0,1,2.07-.65,3.91,3.91,0,0,1,2,.61c8.72,5.09,17.61,10.22,26.22,15.17l9.4,5.43c.32.18.62.39,1,.66l.7.48,1.63,1.1-2.88.39-1.49.21a2.09,2.09,0,0,0-2,2.2A2,2,0,0,0,182.16,172.06ZM95.75,165,92,162.8l-6.2-3.58-9.33-5.37L54.16,141a3,3,0,0,1-1.81-2.84c0-11.68,0-23.55,0-35V92.56a6.79,6.79,0,0,1,0-.73l.11-1.61,1,.49.68.32c.46.22.88.42,1.29.65l10.67,6.16c9,5.19,18.29,10.56,27.46,15.8a3.82,3.82,0,0,1,2.14,3.83c0,11.36,0,22.71,0,34.06Zm2-54a2.83,2.83,0,0,1-1.47-.43Q81.12,101.71,65.93,93l-9.41-5.43a4.3,4.3,0,0,1-.52-.37l-1.15-.86.88-.59.49-.33c.34-.24.65-.46,1-.65L72.49,75.9,96,62.34a2.93,2.93,0,0,1,3.34-.22C109.47,68,119.83,74,129.85,79.8l9.37,5.41a3.11,3.11,0,0,1,.45.34l.31.25.86.69L119.67,98.72q-10,5.77-20,11.58A3.73,3.73,0,0,1,97.74,110.94Zm44,29.87q-15.16,8.67-30.29,17.43l-9.53,5.5a4.6,4.6,0,0,1-.58.27l-1.33.57-.09-1c0-.21,0-.41,0-.6,0-.42-.08-.8-.08-1.18V148.53q0-15.72,0-31.43a3.11,3.11,0,0,1,1.63-3.14q14.92-8.55,29.82-17.17l9.49-5.48a8,8,0,0,1,.78-.39l1.7-.83v10.07q0,18.81,0,37.62A2.94,2.94,0,0,1,141.76,140.81Z"/></g></g></svg>