<svg width="36" height="35" viewBox="0 0 36 35" fill="none" xmlns="http://www.w3.org/2000/svg">
<path d="M18.0245 34.437C20.7585 34.3196 23.4805 34.3024 26.1835 34.0659C31.1268 33.6309 34.6497 30.222 34.9603 25.2838C35.24 20.8376 35.1726 16.3654 35.164 11.9054C35.1606 10.3864 35.0259 8.83129 34.679 7.35726C33.709 3.22168 30.5762 0.461756 26.2232 0.209755C21.7527 -0.0491496 17.2616 0.000904754 12.7808 0.00953492C11.2843 0.012987 9.75163 0.149343 8.29658 0.489372C4.16446 1.45422 1.39245 4.58525 1.13527 8.93485C0.871185 13.4053 0.924694 17.8964 0.931599 22.3789C0.933323 23.8771 1.06968 25.4081 1.40626 26.8632C2.36248 30.997 5.49523 33.6758 9.83965 34.059C12.5616 34.2989 15.3043 34.3196 18.0245 34.437ZM18.0435 32.9215C15.2853 32.7904 12.5167 32.7783 9.77579 32.5004C5.79211 32.0948 3.06498 29.378 2.67489 25.3943C2.40736 22.6534 2.36593 19.8831 2.36593 17.1266C2.36593 14.3701 2.41253 11.5998 2.67489 8.85891C3.03736 5.08752 5.42101 2.51401 9.14924 1.88228C11.1756 1.5388 13.2693 1.47666 15.3319 1.48012C18.9945 1.48529 22.671 1.47494 26.3164 1.77181C30.3035 2.09631 33.0272 4.88213 33.4155 8.86408C33.6813 11.5843 33.7262 14.3322 33.7245 17.0679C33.7245 19.8468 33.6831 22.6396 33.4138 25.4012C33.0272 29.3814 30.2931 32.1017 26.3112 32.5056C23.572 32.7783 20.8051 32.7904 18.0435 32.9215Z" fill="white"/>
<path d="M17.9159 31.4754C20.6551 31.3597 23.2769 31.3994 25.8608 31.1043C29.8359 30.6503 31.9951 28.3323 32.109 24.3193C32.2437 19.5157 32.1902 14.7052 32.1004 9.89997C32.0797 8.79531 31.7207 7.63714 31.2685 6.61188C30.3088 4.43708 28.4119 3.34795 26.1508 3.18398C22.8868 2.94579 19.6057 2.91644 16.3314 2.89228C14.286 2.87675 12.2251 2.90264 10.1988 3.14601C6.25651 3.62067 4.08516 5.94908 3.97815 9.96384C3.85042 14.7242 3.8953 19.4915 3.98505 24.2537C4.00577 25.3808 4.35442 26.5648 4.8101 27.6091C5.7715 29.8115 7.68739 30.8661 9.97439 31.0784C12.6515 31.3287 15.351 31.3563 17.9159 31.4754ZM30.8369 17.0682C30.7955 17.0682 30.7541 17.0682 30.7127 17.0699C30.7127 18.7942 30.723 20.5185 30.7075 22.2428C30.7023 22.9315 30.6454 23.6219 30.6039 24.3089C30.4089 27.5625 28.5897 29.4697 25.3585 29.6682C20.4911 29.9651 15.6185 29.9616 10.7511 29.67C7.5355 29.4766 5.68347 27.6073 5.49878 24.3917C5.21917 19.545 5.20881 14.6932 5.50051 9.84647C5.6921 6.66194 7.52687 4.78574 10.7045 4.58552C15.5926 4.27828 20.4877 4.29037 25.3775 4.58207C28.0011 4.73914 29.6684 6.00777 30.2984 8.24298C30.4607 8.81948 30.5729 9.42531 30.5988 10.0208C30.7006 12.3699 30.761 14.7191 30.8369 17.0682Z" fill="white"/>
<path d="M8.8543 17.1267C8.8543 22.2237 12.9761 26.3282 18.08 26.3178C23.1407 26.3075 27.2383 22.1926 27.2383 17.125C27.2383 12.028 23.1217 7.92865 18.0126 7.93556C12.9519 7.94419 8.85258 12.0556 8.8543 17.1267ZM18.0316 9.46827C22.3812 9.51315 25.7384 12.9083 25.7004 17.2233C25.6641 21.44 22.2052 24.8213 17.966 24.7834C13.7148 24.7454 10.3421 21.2761 10.3922 16.9955C10.4423 12.8375 13.9047 9.42685 18.0316 9.46827Z" fill="white"/>
<path d="M9.26498 11.0809C10.7804 11.0878 12.0025 9.88822 11.999 8.39693C11.9956 6.83832 10.7873 5.60594 9.27534 5.61974C7.83237 5.63183 6.55856 6.91427 6.54303 8.36759C6.52749 9.83989 7.76851 11.0757 9.26498 11.0809ZM9.26498 9.56028C8.62807 9.54647 8.08092 8.98896 8.08092 8.35205C8.07919 7.68063 8.65224 7.13693 9.33402 7.16282C9.98128 7.18698 10.4956 7.74104 10.4853 8.39521C10.4732 9.03902 9.91224 9.57581 9.26498 9.56028Z" fill="white"/>
<path d="M11.8211 17.1336C11.8246 20.5978 14.6156 23.3664 18.0866 23.3508C21.5197 23.3353 24.2744 20.5581 24.271 17.1164C24.2675 13.6471 21.4834 10.8854 18.0055 10.9009C14.5707 10.9165 11.8177 13.6919 11.8211 17.1336ZM13.3521 17.2027C13.3193 14.586 15.3439 12.482 17.9434 12.4337C20.56 12.3853 22.6917 14.4134 22.7383 16.9956C22.7866 19.6606 20.7551 21.7905 18.1367 21.8216C15.4337 21.8543 13.3849 19.8763 13.3521 17.2027Z" fill="white"/>
</svg>
