<svg width="48" height="47" viewBox="0 0 48 47" fill="none" xmlns="http://www.w3.org/2000/svg">
<path d="M35.4815 38.4777V43.8831C35.4815 44.4238 35.0515 44.864 34.5234 44.864H12.5782V40.5777C18.3391 40.1124 22.8892 35.174 22.8892 29.1596V13.8199C22.8892 12.0989 21.5223 10.6995 19.8412 10.6995H11.4376C5.13095 10.6995 0 15.9522 0 22.4481C0 28.8901 5.12042 34.1321 11.413 34.1321C15.2911 34.1321 18.7234 32.1506 20.8028 29.1272V29.1632C20.8028 34.0836 17.0581 38.1166 12.336 38.4561H10.49V47.0017H34.5234C36.2027 47.0017 37.5696 45.6023 37.5696 43.8831V38.4777H35.4815ZM11.413 31.9943C6.27155 31.9943 2.08818 27.7117 2.08818 22.4086C2.08818 17.1307 6.28208 12.8354 11.4394 12.8354H19.8412C20.3711 12.8354 20.8028 13.2773 20.8028 13.8199V22.3816C20.8011 27.6829 16.5896 31.9943 11.413 31.9943Z" fill="#58595B"/>
<path d="M36.5887 12.8858C32.7107 12.8858 29.2783 14.8673 27.1989 17.8906V17.8547C27.1989 12.9325 30.9454 8.89951 35.671 8.56179H37.51V0H13.4784C11.7991 0 10.4321 1.39942 10.4321 3.1204V8.54023H12.5185V3.1204C12.5185 2.57788 12.9484 2.13775 13.4784 2.13775H35.4235V6.4402C29.6626 6.90548 25.1125 11.8439 25.1125 17.8583V32.4866C25.1125 34.601 26.7936 36.3202 28.8572 36.3202H36.5624C42.869 36.3202 48 31.0675 48 24.5716C48 18.1278 42.8813 12.8858 36.5887 12.8858ZM36.5624 34.1807H28.8572C27.943 34.1807 27.1989 33.419 27.1989 32.4831V24.6344C27.1989 19.335 31.4104 15.0217 36.5887 15.0217C41.7302 15.0217 45.9136 19.3044 45.9136 24.6075C45.9136 29.8872 41.7197 34.1807 36.5624 34.1807Z" fill="#58595B"/>
</svg>
