<svg width="21" height="21" viewBox="0 0 21 21" fill="none" xmlns="http://www.w3.org/2000/svg">
<path d="M20.8552 20.1472L16.0398 15.2949C17.4503 13.6692 18.3164 11.5498 18.3164 9.22584C18.3114 4.13916 14.2037 0 9.15572 0C4.1077 0 0 4.13916 0 9.22584C0 14.3125 4.1077 18.4517 9.15572 18.4517C11.5412 18.4517 13.7138 17.5191 15.342 16.0081L20.1525 20.8554C20.2515 20.9551 20.3752 21 20.5039 21C20.6325 21 20.7563 20.9501 20.8552 20.8554C21.0483 20.6609 21.0483 20.3417 20.8552 20.1472ZM0.989807 9.22584C0.989807 4.68772 4.65209 0.997388 9.15572 0.997388C13.6593 0.997388 17.3216 4.68772 17.3216 9.22584C17.3216 13.764 13.6593 17.4543 9.15572 17.4543C4.65209 17.4543 0.989807 13.764 0.989807 9.22584Z" fill="#333333"/>
</svg>
